<?xml version="1.0" encoding="utf-8"?>
<!-- Generator: Adobe Illustrator 23.0.2, SVG Export Plug-In . SVG Version: 6.00 Build 0)  -->
<svg version="1.1" id="Layer_1" xmlns="http://www.w3.org/2000/svg" xmlns:xlink="http://www.w3.org/1999/xlink" x="0px" y="0px"
	 viewBox="0 0 200 36.77" style="enable-background:new 0 0 200 36.77;" xml:space="preserve">
<style type="text/css">
	.st0{fill:#CB4D96;}
	.st1{fill:none;stroke:#CB4D96;stroke-width:1.4282;stroke-miterlimit:10;}
</style>
<g>
	<path class="st0" d="M25.58,2.71h6.84v28.46h-6.68V16.95L20.5,31.16h-4.78l-5.24-14.21v14.21H3.79V2.71h6.84l7.46,20.24L25.58,2.71
		z"/>
	<path class="st0" d="M41.97,2.71l5.01,9.39l5.01-9.39h7.36l-9.06,16.57v11.89H43.6v-12l-9-16.46L41.97,2.71L41.97,2.71z"/>
	<path class="st0" d="M69.92,2.71h12.4c1.74,0,3.29,0.36,4.68,1.09s2.56,1.72,3.52,2.98s1.7,2.76,2.2,4.48
		c0.5,1.73,0.76,3.6,0.76,5.63c0,2.09-0.27,4.02-0.82,5.77c-0.54,1.75-1.35,3.26-2.41,4.51c-1.06,1.26-2.36,2.24-3.92,2.95
		c-1.56,0.7-3.35,1.06-5.38,1.06H69.92V2.71L69.92,2.71z M76.61,25.02h3.96c1.05,0,1.96-0.22,2.75-0.66
		c0.78-0.44,1.43-1.04,1.94-1.79s0.9-1.62,1.16-2.63c0.26-1,0.39-2.06,0.39-3.18c0-1.09-0.15-2.13-0.45-3.09
		c-0.3-0.96-0.74-1.8-1.3-2.51c-0.56-0.71-1.27-1.28-2.11-1.7c-0.84-0.41-1.8-0.63-2.89-0.63h-3.44v16.19H76.61z"/>
	<path class="st0" d="M103.38,2.71v28.46H96.7V2.71H103.38z"/>
	<path class="st0" d="M105.63,31.16l8.68-28.46h8.42l8.68,28.46h-6.68l-2.44-7.96L114,25.73l-1.67,5.43H105.63z M116.04,18.99
		l4.5-1.39l-2.02-6.68L116.04,18.99z"/>
	<path class="st0" d="M133.64,2.71h14.37c1.11,0,2.16,0.16,3.13,0.5s1.81,0.84,2.52,1.52s1.26,1.55,1.67,2.62s0.61,2.34,0.61,3.78
		c0,1.91-0.29,3.44-0.86,4.62c-0.58,1.18-1.44,2.13-2.57,2.84l4.88,12.57h-6.97l-3.98-10.43l-6.11,1.5v8.93h-6.68L133.64,2.71
		L133.64,2.71z M149.29,11.31c0-0.66-0.2-1.24-0.59-1.74c-0.4-0.49-0.93-0.73-1.59-0.73h-6.78v6.89l6.11-1.25
		c1.09-0.21,1.84-0.61,2.25-1.18C149.09,12.74,149.29,12.07,149.29,11.31z"/>
	<path class="st0" d="M164.42,2.71l5.01,9.39l5.01-9.39h7.36l-9.06,16.57v11.89h-6.68v-12l-9-16.46L164.42,2.71L164.42,2.71z"/>
</g>
<path class="st0" d="M190.62,7.43c0,0,1.12,0.27,1.16,0.85l0.48,0.5l-0.17,0.5l0.51,1.63c0,0,0.69,2.08,0.69,2.21
	s0.31,2.08,0.31,2.22s-0.05,0.93,0,0.91s0.24,1.07,0.2,1.15s-0.14,0.59-0.14,0.68s-0.06,0.16-0.05,0.17s0.24,0.33,0.24,0.34
	c0,0.01,0.41,0.1,0.41,0.13s0.02,0.21,0,0.26s-0.06,0.09,0.06,0.11c0.12,0.04,0.14,0,0.16,0.04s0.29-0.09,0.34-0.16
	c0.05-0.07,0.08-0.36,0.08-0.36l-0.12-0.16l0.06-0.36c0,0,0.4-0.04,0.44-0.04s0.18-0.04,0.26-0.08c0.09-0.04,0.14-0.11,0.18-0.14
	c0.04-0.04,0.29-0.1,0.29-0.1s0.26,0.04,0.26,0.11s-0.11,0.26-0.18,0.36c-0.06,0.1-0.39,0.36-0.39,0.47s-0.05,0.1-0.06,0.33
	s-0.12,0.14-0.19,0.21c-0.07,0.06,0.18,0.39,0.18,0.39s0.33,0.31,0.21,0.56c-0.12,0.24-0.5,0.1-0.6,0.08
	c-0.1-0.03-0.24,0.33-0.24,0.33s0.33,2.81,0.33,3s-0.18,0.49-0.28,0.64c-0.1,0.16-1.36,1.31-1.45,1.29s-1.72-0.29-1.72-0.38
	s-0.03-0.26-0.03-0.26l0.01-0.06l-0.75,0.11c0,0-0.71,3.33-1.21,3.93c0,0-0.04,0.84-0.04,0.88c-0.01,0.04-0.1,0.66-0.1,0.74
	s-1.4,0.38-1.48,0.36s-0.01-0.47,0-0.52c0.01-0.05-0.84-0.1-0.89-0.2c-0.05-0.11,0.3-1.37,0.37-1.5c0,0-0.04-0.54,0.04-0.85
	c0,0,0.22-3.02-0.04-2.9c-0.17,0.08-0.59-0.11-0.59-0.11v-0.35l-1.49-0.02c0,0,0.53-8.67,1.36-9.73v-0.32c0,0-0.86-0.11-0.9-0.17
	s-0.68-0.06-0.72-0.17s0.6-0.28,0.6-0.51c0-0.24,0.09-2.01,0.09-2.01s-0.43-1.06-0.5-1.06s-2.11,0.34-2.4,0s-0.89-0.8,0.66-2.53
	c0,0,2.06-1.83,2.13-1.91c0.06-0.08,0.48-0.34,0.48-0.34s-0.68-3.09,1.18-3.02h1.45c0,0,0.97,0.54,0.81,1.81
	c0,0,0.21,0.62,0.23,0.77c0.02,0.16,0.02,1.09,0.02,1.09l-0.14,0.16C189.98,6.43,190.45,7.38,190.62,7.43z"/>
<line class="st1" x1="3.76" y1="34.3" x2="191.85" y2="33.36"/>
</svg>
