<?xml version="1.0" encoding="utf-8"?>
<!-- Generator: Adobe Illustrator 23.0.2, SVG Export Plug-In . SVG Version: 6.00 Build 0)  -->
<svg version="1.1" id="Layer_1" xmlns="http://www.w3.org/2000/svg" xmlns:xlink="http://www.w3.org/1999/xlink" x="0px" y="0px"
	 viewBox="0 0 200 30.98" style="enable-background:new 0 0 200 30.98;" xml:space="preserve">
<style type="text/css">
	.st0{fill:#CD80B3;}
	.st1{fill:#f2727d;}
	.st2{fill:#FFFFFF;stroke:#f2727d;stroke-width:1.5983;stroke-miterlimit:10;}
	.st3{fill:none;stroke:#f2727d;stroke-width:1.5983;stroke-miterlimit:10;}
	.st4{fill:#FFFFFF;stroke:#f2727d;stroke-width:1.1788;stroke-miterlimit:10;}
	.st5{fill:#FFFFFF;stroke:#f2727d;stroke-width:1.1788;stroke-linecap:round;stroke-linejoin:round;stroke-miterlimit:10;}
</style>
<g>
	<g>
		<path class="st0" d="M24.01,2.45h6.43v26.72h-6.28V15.83l-4.92,13.34h-4.5L9.83,15.83v13.34H3.55V2.45h6.43l7,19.01L24.01,2.45z"
			/>
		<path class="st0" d="M39.4,2.45l4.71,8.82l4.7-8.82h6.91l-8.51,15.56v11.16h-6.28V17.91L32.49,2.45H39.4z"/>
		<path class="st0" d="M65.65,2.45H77.3c1.63,0,3.09,0.34,4.39,1.02s2.4,1.62,3.3,2.8c0.91,1.18,1.59,2.59,2.07,4.21
			c0.47,1.62,0.71,3.38,0.71,5.28c0,1.97-0.26,3.77-0.77,5.42c-0.51,1.64-1.27,3.06-2.26,4.24c-1,1.18-2.22,2.11-3.68,2.77
			c-1.46,0.66-3.14,0.99-5.05,0.99H65.65V2.45z M71.93,23.41h3.71c0.99,0,1.85-0.21,2.58-0.62s1.34-0.97,1.83-1.68
			c0.48-0.7,0.84-1.53,1.09-2.46c0.24-0.94,0.36-1.93,0.36-2.98c0-1.03-0.14-2-0.42-2.9c-0.28-0.91-0.69-1.69-1.22-2.36
			s-1.19-1.2-1.98-1.59c-0.78-0.39-1.69-0.59-2.72-0.59h-3.23C71.93,8.23,71.93,23.41,71.93,23.41z"/>
		<path class="st0" d="M97.06,2.45v26.72h-6.28V2.45H97.06z"/>
		<path class="st0" d="M99.18,29.17l8.14-26.72h7.91l8.15,26.72h-6.28l-2.29-7.48l-7.79,2.38l-1.57,5.1
			C105.45,29.17,99.18,29.17,99.18,29.17z M108.95,17.74l4.22-1.31l-1.9-6.27L108.95,17.74z"/>
		<path class="st0" d="M125.49,2.45h13.49c1.05,0,2.03,0.16,2.94,0.47c0.92,0.31,1.7,0.79,2.37,1.42c0.66,0.64,1.19,1.46,1.57,2.46
			c0.38,1.01,0.57,2.19,0.57,3.55c0,1.79-0.27,3.24-0.81,4.34c-0.54,1.11-1.35,2-2.41,2.67l4.59,11.8h-6.55l-3.74-9.79l-5.73,1.41
			v8.38h-6.28V2.45H125.49z M140.18,10.53c0-0.63-0.19-1.17-0.56-1.63c-0.37-0.46-0.87-0.69-1.49-0.69h-6.37v6.47l5.73-1.17
			c1.03-0.2,1.73-0.57,2.11-1.11C139.99,11.87,140.18,11.25,140.18,10.53z"/>
		<path class="st0" d="M154.4,2.45l4.71,8.82l4.71-8.82h6.91l-8.51,15.56v11.16h-6.28V17.91l-8.45-15.46H154.4z"/>
	</g>
	<g>
		<path class="st1" d="M22.88,2.45h6.43v26.72h-6.28V15.83l-4.92,13.34h-4.5L8.7,15.83v13.34H2.42V2.45h6.43l7,19.01L22.88,2.45z"/>
		<path class="st1" d="M38.27,2.45l4.71,8.82l4.71-8.82h6.91l-8.51,15.56v11.16h-6.28V17.91L31.36,2.45H38.27z"/>
		<path class="st1" d="M64.53,2.45h11.65c1.63,0,3.09,0.34,4.39,1.02s2.4,1.62,3.3,2.8c0.91,1.18,1.59,2.59,2.07,4.21
			c0.47,1.62,0.71,3.38,0.71,5.28c0,1.97-0.26,3.77-0.77,5.42c-0.51,1.64-1.27,3.06-2.26,4.24c-1,1.18-2.22,2.11-3.68,2.77
			c-1.46,0.66-3.14,0.99-5.05,0.99H64.53V2.45z M70.8,23.41h3.71c0.99,0,1.85-0.21,2.58-0.62s1.34-0.97,1.83-1.68
			c0.48-0.7,0.84-1.53,1.09-2.46c0.24-0.94,0.36-1.93,0.36-2.98c0-1.03-0.14-2-0.42-2.9c-0.28-0.91-0.69-1.69-1.22-2.36
			s-1.19-1.2-1.98-1.59c-0.78-0.39-1.69-0.59-2.72-0.59H70.8V23.41z"/>
		<path class="st1" d="M95.94,2.45v26.72h-6.28V2.45H95.94z"/>
		<path class="st1" d="M98.05,29.17l8.15-26.72h7.91l8.15,26.72h-6.28l-2.29-7.48l-7.79,2.38l-1.57,5.1
			C104.33,29.17,98.05,29.17,98.05,29.17z M107.83,17.74l4.22-1.31l-1.9-6.27L107.83,17.74z"/>
		<path class="st1" d="M124.36,2.45h13.49c1.05,0,2.03,0.16,2.94,0.47c0.92,0.31,1.7,0.79,2.37,1.42c0.66,0.64,1.19,1.46,1.57,2.46
			c0.38,1.01,0.57,2.19,0.57,3.55c0,1.79-0.27,3.24-0.81,4.34c-0.54,1.11-1.35,2-2.41,2.67l4.59,11.8h-6.55l-3.74-9.79l-5.73,1.41
			v8.38h-6.28V2.45H124.36z M139.06,10.53c0-0.63-0.19-1.17-0.56-1.63c-0.37-0.46-0.87-0.69-1.49-0.69h-6.37v6.47l5.73-1.17
			c1.03-0.2,1.73-0.57,2.11-1.11C138.87,11.87,139.06,11.25,139.06,10.53z"/>
		<path class="st1" d="M153.27,2.45l4.71,8.82l4.71-8.82h6.91l-8.51,15.56v11.16h-6.28V17.91l-8.45-15.46H153.27z"/>
	</g>
	<g>
		<path class="st2" d="M186.45,29.16h-3.8c-4.68,0-8.5-3.83-8.5-8.5v-7.88c0-4.68,3.83-8.5,8.5-8.5h3.8c4.68,0,8.5,3.83,8.5,8.5
			v7.88C194.95,25.34,191.12,29.16,186.45,29.16z"/>
		<line class="st3" x1="178.36" y1="10.38" x2="190.87" y2="10.38"/>
		<line class="st3" x1="178.29" y1="14.73" x2="190.8" y2="14.73"/>
		<line class="st3" x1="178.22" y1="19.09" x2="190.73" y2="19.09"/>
		<line class="st3" x1="178.15" y1="23.44" x2="190.67" y2="23.44"/>
	</g>
	<g>
		
			<rect x="183.59" y="16.02" transform="matrix(0.3181 -0.9481 0.9481 0.3181 115.4841 195.4302)" class="st4" width="20" height="2.84"/>
		<polygon class="st5" points="191.62,27.47 189.58,29.27 189.04,26.6 		"/>
		
			<rect x="190.56" y="24.09" transform="matrix(0.3181 -0.9481 0.9481 0.3181 105.8969 198.3872)" class="st1" width="0.59" height="2.97"/>
		
			<rect x="190.96" y="22.88" transform="matrix(0.3181 -0.9481 0.9481 0.3181 107.3192 197.942)" class="st1" width="0.59" height="2.97"/>
		
			<rect x="195.98" y="7.92" transform="matrix(0.3181 -0.9481 0.9481 0.3181 124.9257 192.4988)" class="st1" width="0.59" height="2.97"/>
	</g>
</g>
</svg>
